<svg xmlns="http://www.w3.org/2000/svg" viewBox="0 0 730 601" role="img" aria-label="APIracy logo">
  <style>
    .accent { fill: #16181d; }
    @media (prefers-color-scheme: dark) { .accent { fill: #ffffff; } }
  </style>
  <path fill-rule="evenodd" fill="#d1432c" d="M 282.450 1.483 C 271.828 3.380, 267.786 5.755, 259.443 15 C 254.564 20.407, 254.115 21.308, 242.523 49 C 241.256 52.025, 239.699 56.148, 239.062 58.162 C 237.540 62.972, 232.388 72.433, 230.387 74.094 C 229.113 75.151, 212.919 75.433, 147.153 75.544 C 55.150 75.699, 63.703 75.013, 45 83.734 C 32.711 89.465, 17.029 102.172, 16.990 106.430 C 16.985 107.018, 15.454 109.421, 13.587 111.768 C 9.287 117.177, 2.524 134.516, 1.184 143.568 C -0.185 152.812, -0.367 517.316, 0.990 530.407 C 2.054 540.666, 7.064 557.472, 10.423 562.046 C 11.565 563.602, 14.364 567.507, 16.643 570.725 C 22.649 579.205, 32.208 586.846, 44 592.591 C 47.025 594.064, 50.271 595.653, 51.212 596.120 C 52.154 596.588, 56.204 597.834, 60.212 598.891 C 67.318 600.764, 74.925 600.814, 365.107 600.896 L 662.714 600.980 670.824 598.553 C 675.284 597.218, 680.411 595.485, 682.217 594.703 C 684.023 593.921, 686.790 592.754, 688.367 592.109 C 689.943 591.464, 693.093 589.380, 695.367 587.477 C 697.640 585.574, 701.525 582.530, 704 580.712 C 706.643 578.770, 711.341 573.299, 715.385 567.453 C 724.102 554.851, 727.799 544.827, 729.697 528.645 C 730.728 519.864, 731.025 341, 730.010 341 C 729.366 341, 729.071 335.476, 729.196 325.750 L 729.391 310.500 730 321 L 730.609 331.500 730.705 317 C 730.761 308.469, 730.471 303.529, 730 305 C 729.478 306.630, 729.214 304.366, 729.242 298.500 C 729.273 291.723, 729.461 290.488, 730 293.500 C 730.439 295.953, 730.716 291.893, 730.716 283 C 730.716 273.145, 730.462 269.781, 729.922 272.500 C 729.424 275.007, 729.369 273.887, 729.775 269.500 C 730.358 263.210, 730.530 176.282, 729.989 161.500 C 729.868 158.200, 730.102 153.761, 730.508 151.635 C 730.914 149.509, 730.845 147.484, 730.354 147.135 C 729.864 146.786, 728.747 143.125, 727.872 139 C 725.891 129.656, 720.679 114.988, 718.835 113.566 C 718.075 112.980, 715.381 109.575, 712.848 106 C 701.712 90.282, 682.179 79.145, 659.628 75.655 L 651.757 74.436 649.942 67.292 C 646.746 54.708, 642.885 49.790, 631.797 44.181 L 625.236 40.863 593.193 40.681 C 561.543 40.502, 561.116 40.527, 558.325 42.705 C 556.771 43.918, 553.686 45.822, 551.470 46.938 C 544.600 50.394, 540.401 55.632, 537.109 64.854 C 535.468 69.449, 533.836 73.499, 533.483 73.854 C 532.516 74.826, 506.732 75.794, 504.974 74.924 C 503.068 73.982, 498.307 63.717, 497.538 58.894 C 497.222 56.910, 495.602 53.233, 493.939 50.722 C 492.276 48.211, 489.143 40.935, 486.976 34.552 C 481.903 19.608, 481.860 19.538, 472.918 11.288 C 460.843 0.148, 466.259 0.719, 370 0.449 C 308.848 0.278, 287.806 0.526, 282.450 1.483 M 286.176 31.032 C 283.107 32.406, 281.595 33.890, 280.404 36.697 C 279.516 38.789, 277.531 43.200, 275.991 46.500 C 274.452 49.800, 272.061 55.650, 270.677 59.500 C 264.820 75.796, 256.844 94.516, 254.383 97.742 C 249.139 104.618, 253.788 104.290, 158.500 104.501 C 73.087 104.690, 72.454 104.706, 65.792 106.873 C 62.103 108.073, 58.810 109.498, 58.474 110.041 C 58.139 110.584, 56.075 111.942, 53.887 113.058 C 44.440 117.877, 36.906 128.817, 32.234 144.500 C 30.153 151.484, 30.149 151.928, 30.080 340.500 L 30.010 529.500 32.407 536.245 C 36.362 547.377, 46.407 559.638, 56.342 565.460 C 66.742 571.555, 48.757 571.204, 365 571.481 L 653.500 571.734 664.580 568.303 C 677.753 564.223, 684.559 559.485, 691.116 549.830 C 699.763 537.096, 699.150 553.175, 699.198 338 C 699.221 233.775, 698.966 147.825, 698.630 147 C 698.295 146.175, 696.648 141.510, 694.969 136.634 C 691.243 125.807, 690.381 124.573, 681.223 116.971 C 675.850 112.511, 671.793 110.134, 665.723 107.888 L 657.500 104.847 575.500 104.541 C 488.482 104.217, 487.048 104.138, 482.341 99.432 C 479.166 96.257, 470.677 78.281, 468.443 70 C 467.478 66.425, 464.959 59.922, 462.844 55.548 C 460.730 51.175, 459 47.254, 459 46.836 C 459 42.291, 454.443 34.757, 450.178 32.250 L 445.500 29.500 367.917 29.335 C 294.213 29.179, 290.126 29.264, 286.176 31.032 M 570.998 71.279 C 567.474 72.194, 567.028 74.573, 570.250 75.269 C 571.487 75.536, 583.299 75.670, 596.498 75.567 C 618.158 75.397, 620.528 75.214, 620.822 73.686 C 621.001 72.756, 620.552 71.792, 619.824 71.546 C 617.398 70.725, 574.044 70.488, 570.998 71.279 M 608.637 111.157 C 606.768 111.865, 606.190 112.499, 606.971 112.982 C 607.778 113.481, 607.489 113.900, 606.083 114.268 C 604.936 114.568, 604.249 114.405, 604.558 113.907 C 606.807 110.267, 597.519 115.758, 592.325 121.139 C 583.201 130.590, 580.738 136.432, 580.609 148.927 C 580.499 159.586, 580.546 159.808, 585.352 171.228 C 586.901 174.907, 596.867 183.161, 604.471 187.061 C 613.438 191.660, 628.018 191.254, 638 186.127 C 648.964 180.496, 657.622 169.841, 659.877 159.201 C 664.020 139.653, 655.430 121.209, 638.500 113.302 C 631.834 110.189, 614.480 108.942, 608.637 111.157 M 615.888 140.500 C 610.609 143.368, 609.536 152.982, 613.997 157.440 C 615.545 158.987, 617.280 159.482, 620.962 159.428 C 626.773 159.344, 628.603 158.058, 630.120 152.993 C 631.166 149.503, 631.020 148.890, 628.160 144.732 C 623.993 138.676, 621.088 137.674, 615.888 140.500 M 343.500 147.189 C 339.650 147.704, 334.491 147.916, 332.036 147.661 C 329.061 147.352, 325.964 147.832, 322.749 149.099 C 320.097 150.144, 317.103 151, 316.098 151 C 315.092 151, 313.161 151.872, 311.806 152.938 C 310.451 154.004, 308.058 155.198, 306.488 155.592 C 304.918 155.986, 302.478 156.912, 301.067 157.648 C 299.655 158.385, 297.542 158.990, 296.372 158.994 C 293.635 159.002, 287.215 161.686, 284.132 164.111 C 282.811 165.150, 280.670 166, 279.374 166 C 278.075 166, 276.452 166.919, 275.758 168.048 C 275.066 169.175, 270.568 172.796, 265.761 176.096 C 256.538 182.427, 237.022 201.091, 230.824 209.508 C 218.769 225.877, 215.711 231.219, 210.477 245.060 C 207.527 252.862, 204.187 260.108, 203.056 261.162 C 201.925 262.216, 201 263.874, 201 264.846 C 201 265.819, 199.865 272.420, 198.477 279.517 C 197.090 286.613, 195.508 298.063, 194.962 304.960 C 194.416 311.857, 193.799 319.285, 193.591 321.467 C 193.383 323.649, 193.817 331.299, 194.557 338.467 C 197.106 363.180, 198.844 372.827, 201.286 375.822 C 202.583 377.412, 206.742 387.148, 208.173 391.940 C 209.972 397.970, 218.835 415.322, 222.760 420.500 C 224.845 423.250, 227.854 427.750, 229.445 430.500 C 231.037 433.250, 234.176 437.340, 236.420 439.588 C 238.664 441.836, 242.626 445.967, 245.224 448.767 C 247.822 451.567, 251.647 455.100, 253.724 456.617 C 255.801 458.134, 259.300 461.042, 261.500 463.078 C 263.700 465.114, 268.650 468.901, 272.500 471.493 C 276.350 474.085, 280.208 476.832, 281.073 477.597 C 281.938 478.363, 284.638 479.622, 287.073 480.397 C 289.508 481.171, 296.450 483.679, 302.500 485.970 C 308.550 488.260, 316.968 491.240, 321.206 492.592 C 325.444 493.943, 329.198 495.512, 329.549 496.079 C 329.935 496.704, 335.935 497.133, 344.843 497.171 C 352.904 497.206, 362.650 497.263, 366.500 497.299 C 378.022 497.405, 392.966 495.275, 400.500 492.451 C 404.350 491.009, 409.525 489.363, 412 488.794 C 414.475 488.225, 419.425 486.412, 423 484.764 C 426.575 483.116, 431.612 480.968, 434.194 479.991 C 436.776 479.013, 441.051 476.451, 443.694 474.298 C 454.613 465.403, 458.440 462.553, 459.716 462.365 C 461.864 462.050, 479.375 445.018, 480.727 441.929 C 481.403 440.387, 482.558 438.759, 483.296 438.312 C 484.034 437.866, 486.152 435.250, 488.003 432.500 C 489.854 429.750, 491.675 427.275, 492.051 427 C 492.776 426.469, 502.656 406.242, 505.483 399.500 C 511.377 385.445, 513.718 369.065, 514.426 336.924 C 514.673 325.691, 515.120 308.850, 515.420 299.500 C 516.117 277.763, 515.145 256.288, 513.384 254.527 C 512.460 253.603, 510.107 253.370, 505.290 253.726 C 487.846 255.015, 474.366 259.834, 468.296 266.951 L 464.500 271.403 464.356 306.451 C 464.129 361.472, 463.908 364.217, 458.421 380.133 C 453.555 394.246, 448.410 404.848, 444.413 409 C 443.089 410.375, 440.720 412.850, 439.147 414.500 C 432.446 421.533, 423.816 429.122, 421.257 430.233 C 419.741 430.891, 416.821 432.458, 414.770 433.715 C 412.718 434.972, 410.243 436.004, 409.270 436.010 C 406.938 436.023, 397 440.670, 397 441.748 C 397 442.210, 394.188 443.172, 390.750 443.886 C 387.313 444.601, 382.035 445.861, 379.021 446.687 C 373.233 448.274, 336.021 448.328, 336.007 446.750 C 336.003 446.337, 335.206 446, 334.235 446 C 333.265 446, 330.902 445.166, 328.985 444.147 C 327.068 443.128, 323.700 441.723, 321.500 441.025 C 319.300 440.327, 315.925 438.984, 314 438.041 C 298.565 430.475, 292.762 427.039, 287.937 422.608 C 284.878 419.799, 280.283 415.925, 277.725 414 C 275.168 412.075, 273.059 410.010, 273.038 409.411 C 273.017 408.812, 270.267 405.437, 266.926 401.911 C 263.585 398.385, 260.642 394.439, 260.387 393.142 C 259.468 388.482, 254.247 378.340, 251.761 376.384 C 250.146 375.114, 248.603 372.230, 247.514 368.445 C 246.573 365.175, 244.673 359.575, 243.291 356 C 241.769 352.059, 240.668 346.941, 240.497 343 C 240.341 339.425, 239.718 333.800, 239.113 330.500 C 237.882 323.787, 238.266 308.859, 239.846 302 C 240.416 299.525, 241.139 293.538, 241.451 288.696 C 241.888 281.937, 242.508 279.232, 244.119 277.053 C 245.274 275.491, 246.619 272.071, 247.108 269.453 C 247.597 266.835, 249.063 263.295, 250.366 261.587 C 251.669 259.879, 254.398 255.110, 256.430 250.991 C 258.462 246.871, 261.335 242.370, 262.813 240.990 C 264.291 239.609, 267.075 236.278, 269 233.587 C 274.351 226.108, 287.518 214.120, 294.867 210.037 C 309.274 202.032, 315.461 199.089, 321 197.606 C 324.575 196.649, 329.057 195.155, 330.959 194.287 C 333.368 193.187, 339.596 192.450, 351.459 191.862 C 369.293 190.977, 376.489 191.403, 379 193.493 C 379.825 194.179, 382.827 195.035, 385.670 195.394 C 390.955 196.062, 403.229 200.646, 407.222 203.443 C 408.445 204.299, 410.402 205, 411.572 205 C 412.743 205, 415.621 206.463, 417.969 208.250 C 428.758 216.463, 431.725 217.316, 435.161 213.195 C 439.291 208.242, 447.899 187.646, 448.714 180.768 C 449.268 176.090, 449.194 175.935, 443.888 170.616 C 440.141 166.860, 436.977 164.718, 433.500 163.583 C 430.750 162.685, 425.350 160.629, 421.500 159.015 C 417.650 157.401, 410 154.898, 404.500 153.454 C 399 152.010, 393.953 150.126, 393.283 149.269 C 391.015 146.361, 359.533 145.045, 343.500 147.189 M 0.458 221 C 0.458 244.375, 0.589 253.938, 0.749 242.250 C 0.909 230.563, 0.909 211.438, 0.749 199.750 C 0.589 188.063, 0.458 197.625, 0.458 221 M 0.469 401.500 C 0.469 434.500, 0.596 447.855, 0.750 431.178 C 0.904 414.501, 0.903 387.501, 0.749 371.178 C 0.595 354.855, 0.469 368.500, 0.469 401.500 M 0.441 496.500 C 0.442 512.450, 0.580 518.835, 0.748 510.689 C 0.916 502.543, 0.916 489.493, 0.747 481.689 C 0.579 473.885, 0.441 480.550, 0.441 496.500"/>
  <path fill-rule="evenodd" class="accent" d="M 465.684 180.649 C 465.308 181.026, 465 184.071, 465 187.417 C 465 198.990, 460.375 217.060, 454.231 229.500 C 450.609 236.832, 444.846 246, 443.858 246 C 443.386 246, 443 246.483, 443 247.073 C 443 248.700, 433.034 261.087, 428.500 265.094 C 416.988 275.271, 397.415 287.961, 393.185 287.991 C 392.462 287.996, 389.762 288.842, 387.185 289.872 C 374.187 295.065, 372.062 295.326, 343.750 295.198 L 317 295.078 317 337.539 L 317 380 360.653 380 L 404.307 380 403.652 364.250 C 401.697 317.267, 417.909 281.080, 452 256.329 C 468.703 244.201, 481.139 239.207, 501.500 236.449 C 508.100 235.556, 513.581 234.745, 513.679 234.649 C 513.778 234.553, 513.960 222.330, 514.083 207.487 L 514.306 180.500 490.337 180.233 C 477.154 180.086, 466.060 180.273, 465.684 180.649"/>
</svg>
